/* XPM */
static char * icon_xpm[] = {
"48 48 806 2",
"  	c None",
". 	c #1A4971",
"+ 	c #1C507C",
"@ 	c #1D517C",
"# 	c #1D507B",
"$ 	c #1D4E78",
"% 	c #1B4A72",
"& 	c #18456B",
"* 	c #153D5F",
"= 	c #12334F",
"- 	c #1D5079",
"; 	c #225E90",
"> 	c #256498",
", 	c #487CA8",
"' 	c #6F97B8",
") 	c #93B0C8",
"! 	c #AAC0D2",
"~ 	c #B7C9D7",
"{ 	c #B9C9D7",
"] 	c #B1C2D2",
"^ 	c #9EB4C6",
"/ 	c #7F9AB2",
"( 	c #567A99",
"_ 	c #2B567A",
": 	c #143F63",
"< 	c #133654",
"[ 	c #225D8D",
"} 	c #276BA3",
"| 	c #3C78AA",
"1 	c #80A7C7",
"2 	c #C0D3E3",
"3 	c #D9E5EE",
"4 	c #E1EAF1",
"5 	c #EBF0F4",
"6 	c #F5F5F7",
"7 	c #FAF9F9",
"8 	c #F9F8F8",
"9 	c #F7F6F6",
"0 	c #F6F5F5",
"a 	c #F6F4F5",
"b 	c #F8F5F5",
"c 	c #F3F2F3",
"d 	c #C4CDD7",
"e 	c #7B93A9",
"f 	c #315777",
"g 	c #133757",
"h 	c #215B8B",
"i 	c #296DA5",
"j 	c #296DA6",
"k 	c #296EA6",
"l 	c #2C71A8",
"m 	c #2D71A9",
"n 	c #2C71A9",
"o 	c #2D72A9",
"p 	c #3073A9",
"q 	c #3777AB",
"r 	c #427DAE",
"s 	c #5B8EB6",
"t 	c #89ABC8",
"u 	c #BCCEDD",
"v 	c #E3E8EE",
"w 	c #F5F4F4",
"x 	c #F4F2F3",
"y 	c #F3F1F2",
"z 	c #F2F0F1",
"A 	c #E5E6E9",
"B 	c #9BABBA",
"C 	c #365875",
"D 	c #133552",
"E 	c #276BA2",
"F 	c #2A70A9",
"G 	c #2971AB",
"H 	c #2871AD",
"I 	c #2A73AE",
"J 	c #2B74AF",
"K 	c #2B73AE",
"L 	c #2A73AD",
"M 	c #2A71AB",
"N 	c #25679E",
"O 	c #316EA0",
"P 	c #6691B5",
"Q 	c #B4C6D6",
"R 	c #F4F3F3",
"S 	c #F3F2F2",
"T 	c #F1EFF0",
"U 	c #F0EEEF",
"V 	c #E4E4E7",
"W 	c #8698A9",
"X 	c #183C5B",
"Y 	c #0E283E",
"Z 	c #1E5079",
"` 	c #2A70AA",
" .	c #2870A9",
"..	c #3A7DB3",
"+.	c #72A2CA",
"@.	c #A7C5DE",
"#.	c #B8D1E5",
"$.	c #97BCDA",
"%.	c #4E8EC1",
"&.	c #2B78B6",
"*.	c #2D79B6",
"=.	c #2C78B4",
"-.	c #2C76B2",
";.	c #2B75B0",
">.	c #2B73AD",
",.	c #296EA5",
"'.	c #286AA1",
").	c #26679C",
"!.	c #236297",
"~.	c #3E739F",
"{.	c #AEC0D1",
"].	c #F0EFF0",
"^.	c #F1F0F0",
"/.	c #EFECED",
"(.	c #EEECED",
"_.	c #C7CCD3",
":.	c #3B5973",
"<.	c #102D48",
"[.	c #1F5581",
"}.	c #2A71AA",
"|.	c #3277AF",
"1.	c #88B1D2",
"2.	c #E8F0F6",
"3.	c #FDFDFD",
"4.	c #F3F6FA",
"5.	c #94BCDC",
"6.	c #3983BF",
"7.	c #2F7DBB",
"8.	c #2E7BB9",
"9.	c #2C77B3",
"0.	c #296EA7",
"a.	c #286BA1",
"b.	c #256497",
"c.	c #246092",
"d.	c #5D86A9",
"e.	c #D7DDE4",
"f.	c #EFEDEE",
"g.	c #EEEBEC",
"h.	c #ECEAEB",
"i.	c #DBDBDF",
"j.	c #566E84",
"k.	c #102F4A",
"l.	c #1F527D",
"m.	c #2970AA",
"n.	c #4684B7",
"o.	c #CCDDEB",
"p.	c #FEFEFE",
"q.	c #FEFDFE",
"r.	c #FDFCFD",
"s.	c #FDFCFC",
"t.	c #CCDFEE",
"u.	c #4F92C8",
"v.	c #3582BF",
"w.	c #317EBD",
"x.	c #2D78B5",
"y.	c #2C75B1",
"z.	c #2A72AC",
"A.	c #256395",
"B.	c #235E8F",
"C.	c #346893",
"D.	c #C3CED9",
"E.	c #EBE8EA",
"F.	c #E5E3E5",
"G.	c #5A7086",
"H.	c #19466B",
"I.	c #286EA7",
"J.	c #5D93BF",
"K.	c #F0F5F9",
"L.	c #FEFDFD",
"M.	c #FCFCFC",
"N.	c #EFF4F9",
"O.	c #6BA5D2",
"P.	c #3985C2",
"Q.	c #3481BF",
"R.	c #2A71AC",
"S.	c #276AA0",
"T.	c #26659A",
"U.	c #246193",
"V.	c #235D8D",
"W.	c #295E8B",
"X.	c #B8C5D2",
"Y.	c #F0EDEE",
"Z.	c #EDEBEC",
"`.	c #EBE9EA",
" +	c #EAE7E8",
".+	c #E4E1E3",
"++	c #536A80",
"@+	c #0F2A43",
"#+	c #699AC2",
"$+	c #F3F6F9",
"%+	c #86B5DA",
"&+	c #3D88C4",
"*+	c #2D78B6",
"=+	c #2B74B0",
"-+	c #286CA4",
";+	c #27689D",
">+	c #235F91",
",+	c #225B8A",
"'+	c #30618B",
")+	c #C9D1DA",
"!+	c #ECE9EB",
"~+	c #EAE7E9",
"{+	c #E8E5E7",
"]+	c #D7D6DA",
"^+	c #38536B",
"/+	c #0C2235",
"(+	c #236091",
"_+	c #5F93BD",
":+	c #F1F6FA",
"<+	c #FFFFFF",
"[+	c #FFFEFE",
"}+	c #FCFBFC",
"|+	c #F8F9FA",
"1+	c #97C0DF",
"2+	c #3B87C3",
"3+	c #2E7CBA",
"4+	c #2C77B4",
"5+	c #296FA7",
"6+	c #276AA1",
"7+	c #26669A",
"8+	c #235C8C",
"9+	c #215786",
"0+	c #426D92",
"a+	c #EBEAEB",
"b+	c #EBE8E9",
"c+	c #E9E6E7",
"d+	c #E7E4E5",
"e+	c #BFC2C9",
"f+	c #153450",
"g+	c #19476B",
"h+	c #3474A7",
"i+	c #EBF2F7",
"j+	c #FBFBFB",
"k+	c #FCFBFB",
"l+	c #9EC4E1",
"m+	c #3D88C3",
"n+	c #3280BE",
"o+	c #2D79B7",
"p+	c #286CA3",
"q+	c #256396",
"r+	c #215988",
"s+	c #1E5380",
"t+	c #8BA2B7",
"u+	c #E9E6E8",
"v+	c #E7E4E6",
"w+	c #E7E3E5",
"x+	c #7B8998",
"y+	c #102C44",
"z+	c #246194",
"A+	c #9CBBD5",
"B+	c #F9FBFD",
"C+	c #DDEAF4",
"D+	c #BCD6EB",
"E+	c #B6D4EA",
"F+	c #C3DCEF",
"G+	c #E3EFF8",
"H+	c #F9FAFA",
"I+	c #A1C5E1",
"J+	c #3985C1",
"K+	c #2F7CBA",
"L+	c #27699F",
"M+	c #245F91",
"N+	c #205683",
"O+	c #2B5A82",
"P+	c #CDD3DA",
"Q+	c #ECE9EA",
"R+	c #E9E7E8",
"S+	c #E8E4E6",
"T+	c #E6E2E4",
"U+	c #D8D7D9",
"V+	c #2F4A63",
"W+	c #184366",
"X+	c #3E78A7",
"Y+	c #F1F6F9",
"Z+	c #FDFEFE",
"`+	c #B9D3E8",
" @	c #5E9BCC",
".@	c #3E89C4",
"+@	c #438EC8",
"@@	c #4D96CE",
"#@	c #569ED3",
"$@	c #63A7DA",
"%@	c #84BCE4",
"&@	c #BEDDF2",
"*@	c #F7FBFD",
"=@	c #FBFAFA",
"-@	c #F9F9FA",
";@	c #9EC3DF",
">@	c #2F7DBC",
",@	c #296FA8",
"'@	c #225C8B",
")@	c #215784",
"!@	c #1E517C",
"~@	c #557896",
"{@	c #E9E7E9",
"]@	c #E8E5E6",
"^@	c #E6E3E4",
"/@	c #E4E1E2",
"(@	c #8D98A5",
"_@	c #0E2A44",
":@	c #205989",
"<@	c #98B7D1",
"[@	c #F2F6FA",
"}@	c #6DA0CA",
"|@	c #2C7AB8",
"1@	c #3F8AC5",
"2@	c #4992CB",
"3@	c #529AD1",
"4@	c #5DA3D6",
"5@	c #66ABDC",
"6@	c #6FB2E1",
"7@	c #77B9E6",
"8@	c #8BC6ED",
"9@	c #D1E9F8",
"0@	c #FBFAFB",
"a@	c #FAFAFA",
"b@	c #96BDDC",
"c@	c #2E7AB8",
"d@	c #2C75B0",
"e@	c #286BA2",
"f@	c #26669B",
"g@	c #225C8C",
"h@	c #215885",
"i@	c #1F527E",
"j@	c #1D4D76",
"k@	c #879CB0",
"l@	c #E6E3E5",
"m@	c #E4E0E2",
"n@	c #D6D4D7",
"o@	c #29455E",
"p@	c #2C6798",
"q@	c #CDDDEA",
"r@	c #5B92BF",
"s@	c #2B76B2",
"t@	c #2E7BBA",
"u@	c #3683C0",
"v@	c #418CC6",
"w@	c #4B94CC",
"x@	c #559CD2",
"y@	c #5FA5D8",
"z@	c #69ADDE",
"A@	c #73B6E4",
"B@	c #7DBEEA",
"C@	c #86C5EF",
"D@	c #8DCBF3",
"E@	c #B6DEF7",
"F@	c #F5FAFC",
"G@	c #F7F8F8",
"H@	c #96BCD9",
"I@	c #2E77B2",
"J@	c #26679B",
"K@	c #246294",
"L@	c #215886",
"M@	c #1F537E",
"N@	c #1D4E77",
"O@	c #1F4C72",
"P@	c #B2BCC7",
"Q@	c #E3DFE1",
"R@	c #69798A",
"S@	c #0D263C",
"T@	c #1A466A",
"U@	c #5585AC",
"V@	c #6194BD",
"W@	c #2C76B3",
"X@	c #559DD2",
"Y@	c #60A6D9",
"Z@	c #6AAEDE",
"`@	c #74B7E4",
" #	c #7EC0EB",
".#	c #88C8F0",
"+#	c #92D0F6",
"@#	c #90CEF5",
"##	c #9DD1F2",
"$#	c #E7F2FA",
"%#	c #FAF9FA",
"&#	c #F9F8F9",
"*#	c #F7F7F8",
"=#	c #A3C2DA",
"-#	c #1C4970",
";#	c #2A5073",
">#	c #C0C5CE",
",#	c #E2DFE1",
"'#	c #9FA6B0",
")#	c #0E2B46",
"!#	c #1D4F78",
"~#	c #2F6D9F",
"{#	c #408BC6",
"]#	c #4A94CC",
"^#	c #549CD2",
"/#	c #72B5E3",
"(#	c #7CBEE9",
"_#	c #85C5EE",
":#	c #8BCAF2",
"<#	c #8AC9F1",
"[#	c #83C4ED",
"}#	c #7EBEE9",
"|#	c #C4DFF2",
"1#	c #FAFBFC",
"2#	c #F9F9F9",
"3#	c #F8F8F8",
"4#	c #B2CADD",
"5#	c #3171A6",
"6#	c #1A4468",
"7#	c #24496A",
"8#	c #A3ADB8",
"9#	c #E5E1E3",
"0#	c #DDDADD",
"a#	c #495F74",
"b#	c #13324E",
"c#	c #3E8AC5",
"d#	c #4892CA",
"e#	c #529AD0",
"f#	c #5CA2D6",
"g#	c #65AADC",
"h#	c #6EB2E1",
"i#	c #76B9E6",
"j#	c #81C2EC",
"k#	c #81C1EC",
"l#	c #75B8E5",
"m#	c #6DB1E0",
"n#	c #96C5E6",
"o#	c #EBF2F8",
"p#	c #F8F7F7",
"q#	c #F8F6F7",
"r#	c #C1D1E0",
"s#	c #3872A2",
"t#	c #1D4E76",
"u#	c #1B496F",
"v#	c #194468",
"w#	c #173F61",
"x#	c #3A546D",
"y#	c #344E65",
"z#	c #13324F",
"A#	c #205784",
"B#	c #2970A8",
"C#	c #327FBD",
"D#	c #3C87C3",
"E#	c #458FC9",
"F#	c #4E97CE",
"G#	c #579FD4",
"H#	c #68ADDD",
"I#	c #6FB3E2",
"J#	c #74B7E5",
"K#	c #77BAE6",
"L#	c #67ACDC",
"M#	c #5EA5D8",
"N#	c #68A8D7",
"O#	c #C9DEEE",
"P#	c #F8F7F8",
"Q#	c #D4DEE6",
"R#	c #3E739E",
"S#	c #225B8B",
"T#	c #1D4D75",
"U#	c #1B486E",
"V#	c #194367",
"W#	c #183E60",
"X#	c #163959",
"Y#	c #143451",
"Z#	c #13334F",
"`#	c #0D2439",
" $	c #266599",
".$	c #2769A0",
"+$	c #2F7CBB",
"@$	c #3884C1",
"#$	c #4993CB",
"$$	c #59A0D5",
"%$	c #67ABDC",
"&$	c #6BAFDF",
"*$	c #6AAEDF",
"=$	c #589FD4",
"-$	c #5199D0",
";$	c #4791CA",
">$	c #85B5D9",
",$	c #E9F0F5",
"'$	c #F7F6F7",
")$	c #F6F5F6",
"!$	c #F5F4F5",
"~$	c #E7E9ED",
"{$	c #5C85A7",
"]$	c #1F5582",
"^$	c #1E517B",
"/$	c #1D4C74",
"($	c #1B476D",
"_$	c #194266",
":$	c #173D5F",
"<$	c #163858",
"[$	c #133350",
"}$	c #0F283F",
"|$	c #2D7AB8",
"1$	c #3380BE",
"2$	c #438EC7",
"3$	c #4B95CC",
"4$	c #58A0D4",
"5$	c #5EA4D7",
"6$	c #61A7D9",
"7$	c #63A8DA",
"8$	c #5DA3D7",
"9$	c #519AD0",
"0$	c #428DC7",
"a$	c #3986C2",
"b$	c #488DC4",
"c$	c #B9D1E5",
"d$	c #F6F7F8",
"e$	c #ECECEF",
"f$	c #7F9BB4",
"g$	c #1F517A",
"h$	c #1C4B72",
"i$	c #1A466C",
"j$	c #194164",
"k$	c #173C5D",
"l$	c #153856",
"m$	c #102B45",
"n$	c #12334D",
"o$	c #448FC8",
"p$	c #5098CF",
"q$	c #59A0D4",
"r$	c #579ED3",
"s$	c #4F98CF",
"t$	c #4A93CB",
"u$	c #3481BE",
"v$	c #2D77B4",
"w$	c #6E9FC6",
"x$	c #E1E9EF",
"y$	c #A6B6C5",
"z$	c #275378",
"A$	c #1A456A",
"B$	c #184062",
"C$	c #163B5B",
"D$	c #153654",
"E$	c #102D46",
"F$	c #11304A",
"G$	c #1F537F",
"H$	c #286DA4",
"I$	c #3C88C3",
"J$	c #428CC7",
"K$	c #4691C9",
"L$	c #4D96CD",
"M$	c #4A93CC",
"N$	c #4690C9",
"O$	c #2C78B5",
"P$	c #2970A9",
"Q$	c #2E70A6",
"R$	c #98B5CE",
"S$	c #EDEFF2",
"T$	c #F6F4F4",
"U$	c #F2F1F2",
"V$	c #F1F0F1",
"W$	c #F1EFEF",
"X$	c #D4D7DD",
"Y$	c #4E6D89",
"Z$	c #163D5F",
"`$	c #163A59",
" %	c #143553",
".%	c #102C45",
"+%	c #1E507B",
"@%	c #235D8E",
"#%	c #2B75B1",
"$%	c #418BC6",
"%%	c #3885C1",
"&%	c #256599",
"*%	c #4679A3",
"=%	c #B2C4D3",
"-%	c #F1F0F2",
";%	c #E8E6E9",
">%	c #8C9BAB",
",%	c #254461",
"'%	c #102A43",
")%	c #1C4C74",
"!%	c #235F90",
"~%	c #307EBC",
"{%	c #3784C0",
"]%	c #3A86C2",
"^%	c #256295",
"/%	c #205988",
"(%	c #577E9F",
"_%	c #C0CBD6",
":%	c #F4F1F2",
"<%	c #EDEAEB",
"[%	c #CED0D5",
"}%	c #657789",
"|%	c #12314D",
"1%	c #0E263C",
"2%	c #246091",
"3%	c #307DBC",
"4%	c #215785",
"5%	c #1C4E78",
"6%	c #507391",
"7%	c #B9C3CD",
"8%	c #EAE8E9",
"9%	c #E9E5E6",
"0%	c #CFCFD3",
"a%	c #86929F",
"b%	c #596C7F",
"c%	c #29445E",
"d%	c #173D5E",
"e%	c #205582",
"f%	c #215987",
"g%	c #2C76B1",
"h%	c #256397",
"i%	c #205581",
"j%	c #1D4C75",
"k%	c #1B456A",
"l%	c #45647F",
"m%	c #9AA6B3",
"n%	c #DDDCE0",
"o%	c #E3DFE0",
"p%	c #314B63",
"q%	c #133450",
"r%	c #1E4F79",
"s%	c #27699E",
"t%	c #1F517C",
"u%	c #1C4971",
"v%	c #1A456B",
"w%	c #194165",
"x%	c #27455F",
"y%	c #5F7285",
"z%	c #A6ADB7",
"A%	c #D8D6D9",
"B%	c #E5E0E2",
"C%	c #D2D0D4",
"D%	c #12304C",
"E%	c #235B89",
"F%	c #3D709A",
"G%	c #3D729E",
"H%	c #286596",
"I%	c #236397",
"J%	c #286DA5",
"K%	c #215887",
"L%	c #1F527C",
"M%	c #1C4A72",
"N%	c #1B466C",
"O%	c #163A5A",
"P%	c #10304C",
"Q%	c #2E4861",
"R%	c #3B536A",
"S%	c #0F2A42",
"T%	c #3C688E",
"U%	c #CDD9E3",
"V%	c #DCE6ED",
"W%	c #9DB9CF",
"X%	c #477BA6",
"Y%	c #27689E",
"Z%	c #194368",
"`%	c #173B5C",
" &	c #143450",
".&	c #12304B",
"+&	c #1F4A70",
"@&	c #C4D0DB",
"#&	c #FFFEFF",
"$&	c #F6F8FA",
"%&	c #A9C1D5",
"&&	c #4277A3",
"*&	c #226194",
"=&	c #266598",
"-&	c #235E8E",
";&	c #1F5480",
">&	c #1B476E",
",&	c #184063",
"'&	c #153958",
")&	c #143552",
"!&	c #12314C",
"~&	c #1D4161",
"{&	c #CFD9E1",
"]&	c #F9FBFC",
"^&	c #B9CCDC",
"/&	c #5A87AB",
"(&	c #286393",
"_&	c #1E507A",
":&	c #1C4A71",
"<&	c #0D253A",
"[&	c #112F4A",
"}&	c #5B7891",
"|&	c #F9FAFB",
"1&	c #D9E3EB",
"2&	c #8BA9C2",
"3&	c #45759C",
"4&	c #255D8B",
"5&	c #205481",
"6&	c #1B4970",
"7&	c #1A466B",
"8&	c #173C5E",
"9&	c #143654",
"0&	c #133655",
"a&	c #B6C3CF",
"b&	c #F7F8FA",
"c&	c #93ADC2",
"d&	c #4B7599",
"e&	c #235681",
"f&	c #1B4F7A",
"g&	c #183F62",
"h&	c #163958",
"i&	c #11314D",
"j&	c #14334F",
"k&	c #465D73",
"l&	c #1B3954",
"m&	c #0D2336",
"n&	c #2C4C6A",
"o&	c #E0E5EA",
"p&	c #F0F2F5",
"q&	c #C1CED9",
"r&	c #87A0B5",
"s&	c #5F7F9B",
"t&	c #416686",
"u&	c #285173",
"v&	c #1C4569",
"w&	c #163F62",
"x&	c #143B5D",
"y&	c #133859",
"z&	c #123655",
"A&	c #113250",
"B&	c #10304D",
"C&	c #1D3B55",
"D&	c #365067",
"E&	c #596D80",
"F&	c #939DA9",
"G&	c #D3D3D7",
"H&	c #7F8C9A",
"I&	c #112E48",
"J&	c #4F6B83",
"K&	c #F0F3F5",
"L&	c #F3F3F5",
"M&	c #E7E9EC",
"N&	c #D6DBE0",
"O&	c #C3CBD3",
"P&	c #B2BDC7",
"Q&	c #ABB6C0",
"R&	c #A9B3BD",
"S&	c #ACB4BD",
"T&	c #B5BCC4",
"U&	c #C6CAD0",
"V&	c #D9DADD",
"W&	c #E5E4E5",
"X&	c #E8E4E5",
"Y&	c #A5ACB6",
"Z&	c #183650",
"`&	c #637C91",
" *	c #F4F3F4",
".*	c #EDEAEC",
"+*	c #B9BDC4",
"@*	c #213D58",
"#*	c #637A8F",
"$*	c #F1F3F5",
"%*	c #9DADBC",
"&*	c #4E6D88",
"**	c #617D95",
"=*	c #99ABBA",
"-*	c #DAE0E5",
";*	c #F8F8F9",
">*	c #CCCDD3",
",*	c #8E99A6",
"'*	c #1E3B56",
")*	c #11304B",
"!*	c #50687F",
"~*	c #E1E5E9",
"{*	c #F4F5F7",
"]*	c #1C4161",
"^*	c #163D5E",
"/*	c #153C5D",
"(*	c #1F4363",
"_*	c #3A5975",
":*	c #6D8397",
"<*	c #9FADBA",
"[*	c #BEC7CF",
"}*	c #D8DCE1",
"|*	c #E6E8EB",
"1*	c #EBEDEF",
"2*	c #EFEFF1",
"3*	c #F0EFF1",
"4*	c #EEEEEF",
"5*	c #EAEAEC",
"6*	c #E3E3E6",
"7*	c #D4D6DB",
"8*	c #BBC1C8",
"9*	c #9BA5B1",
"0*	c #687A8C",
"a*	c #354F66",
"b*	c #1A3854",
"c*	c #102C46",
"d*	c #2D4964",
"e*	c #B9C3CB",
"f*	c #F5F6F7",
"g*	c #1A3B5A",
"h*	c #153857",
"i*	c #153756",
"j*	c #153655",
"k*	c #123452",
"l*	c #173653",
"m*	c #203E58",
"n*	c #2A465F",
"o*	c #334D65",
"p*	c #334E66",
"q*	c #2C4760",
"r*	c #213E59",
"s*	c #173551",
"t*	c #11304C",
"u*	c #5F7487",
"v*	c #D4D9DF",
"w*	c #496177",
"x*	c #0F2B43",
"y*	c #1C3955",
"z*	c #2C4861",
"A*	c #112F49",
"B*	c #13314D",
"C*	c #112E47",
"D*	c #0B2032",
"E*	c #102B43",
"                                                                                                ",
"                                        . + @ # $ % & * =                                       ",
"                                - ; > , ' ) ! ~ { ] ^ / ( _ : <                                 ",
"                            [ } | 1 2 3 4 5 6 7 8 9 0 a b c d e f g                             ",
"                        h i j k l m n o p q r s t u v 0 w x y z A B C D                         ",
"                      E F F G H I J J K L M F k } N O P Q R S z T U V W X Y                     ",
"                  Z `  ...+.@.#.$.%.&.*.=.-.;.>.F ,.'.).!.~.{.].^.U /.(._.:.<.                  ",
"                [.}.|.1.2.3.3.3.3.4.5.6.7.8.*.9.J M 0.a.).b.c.d.e.T f.g.h.i.j.k.                ",
"              l.m.n.o.p.p.q.3.3.3.r.s.t.u.v.w.8.x.y.z.k '.).A.B.C.D.U (.h.E.F.G.<.              ",
"            H.I.J.K.p.p.p.p.L.3.3.3.M.M.N.O.P.Q.7.*.y.R.k S.T.U.V.W.X.Y.Z.`. +.+++@+            ",
"            } #+K.p.p.p.p.p.p.L.3.3.r.M.M.$+%+&+v.7.*+=+` -+;+b.>+,+'+)+g.!+~+{+]+^+/+          ",
"          (+_+:+<+[+p.p.p.p.p.q.3.3.3.M.M.}+|+1+2+v.3+4+K 5+6+7+U.8+9+0+a+h.b+c+d+e+f+          ",
"        g+h+i+<+<+<+p.p.p.p.p.p.L.3.3.s.M.}+j+k+l+m+n+o+y.}.p+;+q+B.r+s+t+Z.E.u+v+w+x+y+        ",
"        z+A+<+<+B+C+D+E+F+G+B+p.q.3.3.r.M.M.k+j+H+I+J+K+4+>.k L+> M+,+N+O+P+Q+R+S+T+U+V+        ",
"      W+X+Y+Z+`+ @.@+@@@#@$@%@&@*@3.3.3.s.M.}+j+=@-@;@>@*+J ,@'.T.c.'@)@!@~@{@ +]@^@/@(@_@      ",
"      :@<@[@}@|@v.1@2@3@4@5@6@7@8@9@3.3.s.M.}+j+0@a@=@b@c@d@F e@f@z+g@h@i@j@k@Q+{+l@m@n@o@      ",
"      p@q@r@s@t@u@v@w@x@y@z@A@B@C@D@E@F@r.M.M.j+0@a@7 G@H@I@` p+J@K@V.L@M@N@O@P@c+l@/@Q@R@S@    ",
"    T@U@V@G W@t@u@v@w@X@Y@Z@`@ #.#+#@###$#s.M.k+j+a@%#&#*#=#}.p+).K@V.L@M@N@-#;#>#S+.+,#'#)#    ",
"    !#~#-+M -.t@u@{#]#^#y@z@/#(#_#:#<#[#}#|#1#k+j+=@%#2#3#8 4#5#J@z+V.L@M@N@-#6#7#8#9#0#a#b#    ",
"    [.).p+` y.c@Q.c#d#e#f#g#h#i#B@j#k#(#l#m#n#o#j+=@%#2#8 p#q#r#s#U.g@h@i@t#u#v#w#X x#y#b#z#    ",
"    A#f@a.B#=+o+C#D#E#F#G#Y@H#I#J#K#7@`@h#L#M#N#O#j+a@2#8 P#9 9 Q#R#S#A#l.T#U#V#W#X#Y#b#b#Z#`#  ",
"    L@ $.$k K 4++$@${##$e#$$Y@%$&$m#m#*$5@y@=$-$;$>$,$7 8 P#'$)$!$~${$]$^$/$($_$:$<$[$b#b#b#}$  ",
"    L@q+;+-+M y.|$1$2+2$3$e#4$5$6$7$7$6$8$=$9$]#0$a$b$c$d$P#'$)$!$x e$f$g$h$i$j$k$l$Z#b#b#b#m$  ",
"  n$N+z+f@6+,@K 4+3+v.&+o$w@p$^#G#q$q$r$^#s$t$2$D#u$8.v$w$x$p#)$!$x y z y$z$A$B$C$D$z#b#b#b#E$  ",
"  F$G$M+b.;+H$}.=+*.+$v.I$J$K$w@L$F#F#L$M$N$v@2+Q.3+O$J P$Q$R$S$T$x U$V$W$X$Y$Z$`$ %b#b#b#b#.%  ",
"    +%@%z+T.S.k M #%*.+$u$P..@v@+@o$o$2$$%&+%%1$t@x.;.M i L+&%*%=%-%y ^.U /.;%>%,%[$b#b#b#b#'%  ",
"    )%,+!%q+).a.0.z.#%x.8.~%Q.{%a$]%]%P.{%u$~%c@=.=+M k 6+f@^%B./%(%_%:%U (.<%Q+[%}%b#|%b#z#1%  ",
"    A$L@g@2%b.).e@k M J W@*+|$3+3%~%~%7.3+|$x.-.K ` j S.).q+!%S#4%M@5%6%7%a+<%8%c+9%0%a%b%c%    ",
"    d%e%f%V.c.b.).6+i P$z.J g%4+O$x.x.=.9.y.J z.,@H$S.J@h%c.g@L@i%+%j%U#k%l%m%n%c+w+/@Q@o%p%    ",
"    q%r%N+r+V.c.h%f@L+e@k ,@M z.K K K >.z.}.,@i e@s%7+q+2%8+f%e%t%t#u%v%w%:$g x%y%z%A%B%C%D%    ",
"    1%i$i@e%E%F%G%H%I%).s%a.p+J%k 0.k k J%p+6+s%J@> z+!%'@K%e%L%N@M%N%_$W#O%D$Z#b#P%z#Q%R%S%    ",
"      :$$ T%U%$+$+V%W%X%> 7+).Y%L+L+L+L+Y%).7+> ^%c.@%,+L@i%t%$ h$($Z%B$`%l$ &b#b#b#b#b#z#      ",
"      .&+&@&<+<+<+#&p.$&%&&&*&b.> =&=&> b.^%U.2%-&'@r+A#;&!@N@h$>&6#,&d%'&)&b#b#b#b#b#b#!&      ",
"        ~&{&<+<+<+p.p.p.p.]&^&/&(&; M+!%B.@%g@,+f%)@i%i@_&j@:&($6#,&d%X# %z#b#b#b#b#b#b#<&      ",
"        [&}&Z+<+p.p.p.p.p.p.p.|&1&2&3&4&/%f%h@N+5&M@^$$ )%6&7&V#,&8&X#9&Z#b#b#b#b#b#b#D%        ",
"          0&a&p.p.p.p.p.p.p.L.3.3.3.b&U%c&d&e&f&_&N@/$:&>&A$_$g&k$h&9&Z#b#b#b#i&j&k&l&m&        ",
"          S@n&o&p.p.p.p.p.q.3.3.3.s.M.}+k+s.p&q&r&s&t&u&v&w&x&y&z&A&B&b#C&D&E&F&G&H&_@          ",
"            I&J&K&p.p.p.q.3.3.3.r.M.M.k+j+=@a@7 7 8 L&M&N&O&P&Q&R&S&T&U&V&W&c+X&Y&Z&            ",
"              |%`&1#p.q.3.3.3.3.3.3.}+j+0@a@%#2#8 P#'$)$!$ *c U$T U (..*E.u+]@+*@*              ",
"                P%#*$*3.3.3.3.%*&***=*-*;*j+7 &#P#p#9 0 w R y z ].f.(.(.u+>*,*'*                ",
"                  )*!*~*3.3.{*]*d%^*/*(*_*:*<*[*}*|*1*2*3*4*5*6*7*8*9*0*a*b*i&                  ",
"                    c*d*e*s.f*g*h*h*h*h*i*j*k*A&l*m*n*o*D&p*q*r*s*t*P%b#b#D%                    ",
"                      `#|%u*v*w*Z#[$[$[$Z#z#b#b#b#b#b#b#b#b#b#b#b#b#b#z#x*                      ",
"                          @+y*z*b#b#b#b#b#b#b#b#b#b#b#b#b#b#b#b#b#z#A*                          ",
"                              x*B*Z#b#b#b#b#b#b#b#b#b#b#b#b#z#z#C*                              ",
"                                  D*E*[&B*b#Z#Z#Z#Z#z#b#D%.%`#                                  ",
"                                                                                                ",
"                                                                                                "};
